<svg width="14" height="14" viewBox="0 0 14 14" fill="none" xmlns="http://www.w3.org/2000/svg">
<path fill-rule="evenodd" clip-rule="evenodd" d="M11.4134 5.46028C9.26091 6.41918 11.3266 9.37186 7.41123 10.0945C6.02054 10.3512 5.05512 10.5778 5.17626 12.2594C5.26868 13.5528 6.50513 14.4256 7.84274 13.7846C9.80732 12.8436 7.89707 9.50273 11.765 9.11713C15.5724 8.73791 13.8732 4.36476 11.4134 5.46028Z" fill="#DA1DD8"/>
<path fill-rule="evenodd" clip-rule="evenodd" d="M6.03745 0.363227C4.18215 1.60048 6.19668 4.18543 1.91783 4.90173C-1.6229 5.49482 0.37477 9.88584 2.81394 8.45835C4.6811 7.36474 2.62036 4.31885 6.90546 3.85281C10.3369 3.47934 8.59277 -1.34007 6.03745 0.363227Z" fill="#DA1DD8"/>
<path fill-rule="evenodd" clip-rule="evenodd" d="M6.52445 5.3729C4.06841 6.03047 5.17684 9.77478 7.5798 8.9774C9.71797 8.26684 8.98173 4.71533 6.52445 5.3729Z" fill="#DA1DD8"/>
</svg>
