<?xml version="1.0" standalone="no"?>
<!DOCTYPE svg PUBLIC "-//W3C//DTD SVG 1.1//EN" "http://www.w3.org/Graphics/SVG/1.1/DTD/svg11.dtd">
<svg xmlns="http://www.w3.org/2000/svg" width="40" height="32" viewBox="0 0 40 32" fill="none">
<path d="M4.74372 6.47965C4.76804 6.23754 4.73487 5.9931 4.6469 5.76623C4.55894 5.53936 4.41867 5.33645 4.2375 5.17401L0.504113 0.674963V0H12.1008L21.0652 19.6583L28.9454 0H40V0.672853L36.8045 3.73339C36.6707 3.83755 36.5673 3.97563 36.505 4.13328C36.4427 4.29092 36.4238 4.46238 36.4501 4.62983V27.1272C36.4233 27.2947 36.442 27.4663 36.5044 27.624C36.5667 27.7817 36.6704 27.9198 36.8045 28.0236L39.9241 31.0842V31.757H24.2396V31.0842L27.4647 27.9477C27.7853 27.6313 27.7853 27.5364 27.7853 27.0534V8.86733L18.8019 31.6832H17.5891L7.13141 8.86733V24.1573C7.04493 24.8007 7.25796 25.4482 7.71145 25.9144L11.9131 31.0124V31.6853H0V31.0124L4.20164 25.9144C4.42269 25.684 4.58682 25.4052 4.68094 25.1001C4.77506 24.795 4.79656 24.4722 4.74372 24.1573V6.47965Z" fill="black"/>
</svg>